# xmcd
#
# Track frame offsets:
# 150
# 13961
# 29738
# 48563
# 72821
# 87745
# 109883
# 126264
# 144040
# 163117
# 178041
# 199073
# 220307
# 239135
# 256511
# 277603
# 291089
# 307074
# 324808
# 342357
#
# Disc length: 4786 seconds
#
#
# Revision: 0
# Processed by: cddbd v1.5.2PL0 Copyright (c) Steve Scherf et al.
# Submitted via: FreeRIP 2.951 
#
DISCID=3112b014
DTITLE=Rock Hits - - Rock para la banda
DYEAR=1900
DGENRE=Alt. Rock
TTITLE0=Intro
TTITLE1=Un minuto de amor
TTITLE2=Molinos de viento
TTITLE3=La leyenda del magoi y el hada
TTITLE4=Quien te cantara
TTITLE5=Fiesta pagana
TTITLE6=El principio y el fin
TTITLE7=Palabras de libertad
TTITLE8=Vaquero rock
TTITLE9=Quien te cantara
TTITLE10=Toda la noche
TTITLE11=Yo quiero
TTITLE12=Me llamas
TTITLE13=Casi siempre estoy pensando en ti
TTITLE14=quiza si quiza no
TTITLE15=Y como es el
TTITLE16=Hits.
TTITLE17=volvere
TTITLE18=Himno a la banda
TTITLE19=soñaba
EXTD=
EXTT0=
EXTT1=
EXTT2=
EXTT3=
EXTT4=
EXTT5=
EXTT6=
EXTT7=
EXTT8=
EXTT9=
EXTT10=
EXTT11=
EXTT12=
EXTT13=
EXTT14=
EXTT15=
EXTT16=
EXTT17=
EXTT18=
EXTT19=
PLAYORDER=
